<svg xmlns="http://www.w3.org/2000/svg" height="24px" viewBox="0 -960 960 960" width="24px" fill="#FFFFFF"><path d="m319-60 33-101h-71l47-130h96l-41 92h79L357-60h-38Zm236-40 28-80h-76l41-111h96l-32 73h77l-95 118h-39ZM300-343q-87 0-147-60T93-550q0-79 53-137t133-69q31-57 83-89t118-32q86 0 149 58t77 142q76 8 118.5 56T867-510q0 69-49 118t-118 49H300Zm0-54h400q46 0 79.5-33.5T813-510q0-46-33.5-79.5T700-623h-47v-27q0-72-50.5-122.5T480-823q-52 0-95 29t-64 75l-6 16h-17q-62 2-106.5 46.5T147-550q0 64 44.5 108.5T300-397Zm180-213Z"/></svg>